<?xml version="1.0" encoding="utf-8"?>
<!-- Generator: Adobe Illustrator 26.0.1, SVG Export Plug-In . SVG Version: 6.00 Build 0)  -->
<svg version="1.1" id="Layer_1" xmlns="http://www.w3.org/2000/svg" xmlns:xlink="http://www.w3.org/1999/xlink" x="0px" y="0px"
	 viewBox="0 0 600 600" style="enable-background:new 0 0 600 600;" xml:space="preserve">
<style type="text/css">
	.st0{fill:#FFFFFF;stroke:#FFFFFF;}
	.st1{fill:none;}
</style>
<g id="XMLID_4_">
	<g>
		<path class="st0" d="M395.4,212.7c-0.5-4.5-4.7-9.1-4.7-9.1l0.7,3.8c3.4,4.6,1.8,5,1.8,5c-1.1-1.9-0.6,2.8-0.6,2.8
			c1,3,1.1,6,1.1,6c-1-3.5-1.2-1.6-1.2-1.6c-0.5,2.8-0.1,10.3-0.1,10.3c0,6.6,3.8,16.8,3.8,16.8c2.6,6.7,4.1,22.4,4.1,22.4
			c1.1,6.8,1.3,21.7,1.3,21.7c0.3,5.2,6.5,14.5,6.5,14.5c1.2,2.3,0.2,3.8,0.2,3.8c-0.2,1.6,0.2,2.9,0.2,2.9c0.6,3.6-3.7,6-3.7,6
			c-5.5,3.3-4.7,0.4-4.7,0.4c-1.5,1.3-2.1-1-2.1-1c-0.3-0.2-0.4-0.4-0.4-0.6c0-1.4,4.2-3.9,4.2-3.9c0-1-2.6-3-2.6-3
			c-2.4-3.8-2.8-9.7-2.8-9.7c0-2.7-2.6-12-2.6-12c0.1-4.3-2.3-11.9-2.3-11.9c-2.4-4.1-7.7-21.9-7.7-21.9c-2-4.1-2.8-20.4-2.8-20.4
			c0.1-6.8-1.6-8.3-1.6-8.3c-1.9,3.6-1.7,12.4-1.7,12.4c-2.1,9,4.9,23,4.9,23c1.3,2.7,2.6,8.4,2.6,8.4c0,2.6,0.9,3,0.9,3
			c1.3,3,2.1,10.2,2.1,10.2l1.3,2.8c2.3,4.5,5.4,23.2,5.4,23.2c0.1,0.5,0.7,4.4,1.3,8.4l0,0c0.7,4.6,1.4,9.3,1.4,9.3
			c2.4,8.5,6.5,52.7,6.5,52.7c0.4,5.2,1.2,23.1,1.2,23.1c0,3.7,2.7,42.5,2.7,42.5c0,4.6-8,4.6-8,4.6c-1.3,0.1-2.3,2.8-2.3,2.8
			c0.2,4-11.7,2.4-11.7,2.4c-4,0.6-18.2-0.5-18.2-0.5c-0.4,6-14.8,5-14.8,5c-5.1,0-1.6-7.9-1.6-7.9c-0.2-4.1,1.8-11.4,1.8-11.4
			c1-1.9-1.6-8.5-1.6-8.5c-0.1,1.1-2.6,3.3-2.6,3.3l0.7,1.9c1.2,3.8-1.1,11.3-1.1,11.3c-2.4,5.7-11.6,2.5-11.6,2.5
			c-4.5-1-1.7-11.8-1.7-11.8c0.1-1.6,1.7-6.8,1.7-6.8l0.1-1.7c-1.1-3.3-0.7-11.9-0.7-11.9c-0.6-2.7-3.9,0.9-3.9,0.9
			c-0.2,6.7-22.3,12.5-22.3,12.5c-6.2,1.6-1.6-23.2-1.6-23.2c0-2.2,2.2-25.9,2.2-25.9c0.4-5.6,6.5-48.7,6.5-48.7
			c0.9-11.6,9.2-27.4,9.2-27.4c-0.9-2.6,1-17,1-17c-0.4-9.7,1.8-11.4,1.8-11.4c0-0.7,0.7-4.9,0.7-4.9c-2.6,0.1-1.5-0.6-1.5-0.6
			c0-3.2,2.7-14.5,2.7-14.5c1.1-8.3-2.1-18.6-2.1-18.6l0.1,11.7c0,4.9-9.4,27.4-9.4,27.4c1.3,4.3,3,21.8,3,21.8
			c0,4.5-3.3,5.5-3.3,5.5c-2.1,2.6-6.6-0.7-6.6-0.7c0.5,1.6-1.7,3-1.7,3c0.2,1.8-5.2-0.9-5.2-0.9c-1.6-1.7-4.5-2.4-4.5-2.4
			c-1.8,3-4,3.8-4,3.8c-3.2,0.6-0.6-4.5-0.6-4.5c-1.8-2.3,1.2-5.8,1.2-5.8c-0.7-2,1.2-6.9,1.2-6.9c3.2-5.1-3.9-19.1-3.9-19.1
			c-2.8-3.9-7.1-19.8-7.1-19.8c0.6,3.3,0.1,6.9-0.1,10.2c-0.1,2.1-0.3,4.1-0.5,6.2c-0.1,1.7,0.1,4.2-0.5,5.7c-2.1,4.6-0.6,26-0.6,26
			c1.8,6-0.9,6.3-0.9,6.3c0.6,3.7,1.1,16.7,1.1,16.7c0.7,8.9-3.3,41.5-3.3,41.5c-0.5,6.3-6,28.2-6,28.2c-0.5,6-8.5,32.5-8.5,32.5
			c-0.6,2.2,1,6.9,1,6.9c2.9,2.4,3.4,10.8,3.4,10.8c0.2,2.7-1.8,8.1-1.8,8.1c-0.7,0.2-0.6,2.7-0.6,2.7c0.7,1.7-1.6,3.2-1.6,3.2
			c0.7,3.3,0,6.1,0,6.1c-0.2,4.5-13.6,4.3-13.6,4.3c-8-0.1-7.3-2.9-7.3-2.9c0-1.6-0.9-6-0.9-6c-3.2-4.2-3.9-14.6-3.9-14.6
			c-1.1,6.2-7.8,5.2-7.8,5.2c-8-0.6-9.6-12.8-9.6-12.8c-0.2-6.1,1.7-9,1.7-9c0-3.2,1.9-3.8,1.9-3.8c-1.5-0.2-1.3-1.8-1.3-1.8
			c0.6-3.2-0.4-5.6-0.4-5.6c-4.4-0.5-4.3-9.6-4.3-9.6c-1.2-2-5.2-16.4-5.2-16.4c-3.2-3.9-5.8-14.4-5.8-14.4c-2.1-4-3-8.3-3-8.3
			c-4-3.4-5.5-19.6-5.5-19.6c-2.3-9.1,2.9-37.7,2.9-37.7c-2.9,0.1-2.1-1.3-2.1-1.3c1.1-1.9,1.8-4.6,1.8-4.6
			c-4.1,2.1-3.6-12.8-3.6-12.8c0.1-3.9-2.1-10.8-2.1-10.8c-2.6-5.7-3.2-15-3.2-15c-3.3-16.1,2.1-48.2,2.1-48.2
			c0.1-10.2,5.7-36.5,5.7-36.5c0.5-7.7,19-14.6,19-14.6c2.4-0.7,7.1-0.9,7.1-0.9c1.5-0.4,6.1-3.4,6.1-3.4
			c-1.5-1.6-3.9-11.7-3.9-11.7c-2.3-4.6-1.5-12.3-1.5-12.3c-3-4.7-0.2-13.6-0.2-13.6c-0.9-5.7,6.3-9.4,6.3-9.4
			c2.7-4,13.6-0.9,13.6-0.9c6.4,0.7,10.7,9,10.7,9c4.4,3.6,2.8,22.6,2.8,22.6c0.2,7.8-4,9.7-4,9.7l0.6,4.3c2.2,5.8,9,6.9,9,6.9
			c6.1,0.5,18.9,10.5,18.9,10.5c10.1,4.1,21.4,62.3,21.4,62.3c0,2.3,3.4,10.1,3.4,10.1c1.5-5.2,1.1-24,1.1-24
			c0.4-3.3-2.5-16.3-2.5-16.3c-0.2-6.6,2.5-12.9,2.5-12.9l-2.1,0.6c-0.2-3.8,5.7-5.3,5.7-5.3l-2.2-0.2l2.4-1.3c2.2-0.6,2-4.1,2-4.1
			c1.6-3,3-9.1,3-9.1l-2.7-0.3c-1.2-0.5-1.5-2.4-1.5-2.4c1.6,0.5,3.8-1.3,3.8-1.3c2.3-2.6,3.9-13.5,3.9-13.5
			c1.1-9.2,10.9-16.5,10.9-16.5c3.6-5.7,8.5-2.6,8.5-2.6c3-2.4,7.9,0.9,7.9,0.9c10.9,0.7,17.6,20.6,17.6,20.6c0.7,2,4.1,8.6,4.1,8.6
			c3.3,3,1.5,9.7,1.5,9.7c0,2.1,2.3,3.5,2.3,3.5c2.1,2.8,2.4,10,2.4,10c2.7,1.5,4,5.5,4,5.5c2.9,0.2,7.7,5.7,7.7,5.7
			s1.5,2.9-0.5,0.1c-1.9-2.8-5-2.8-5-2.8C396,206.6,395.4,212.7,395.4,212.7z M242.2,392.1c0,3.3,2.8,2.8,2.8,2.8
			c5.5-1,7.7,4.9,7.7,4.9c3.9-7.3,1.8-25.1,1.8-25.1c-1.8-6.6-2.7-22.3-2.7-22.3c0.1-8.4-5.4-27.6-5.4-27.6
			c-1.3,0.9-4.9,11.4-4.9,11.4c-3.7,6.9-4.7,28.7-4.7,28.7c-1.5,4.4,2.8,15.2,2.8,15.2C240.8,383.9,242.2,392.1,242.2,392.1z"/>
	</g>
	<g>
		<path class="st1" d="M397.6,316.5c0,0.2,0.1,0.5,0.4,0.6c0,0,0.6,2.3,2.1,1c0,0-0.7,2.9,4.7-0.4c0,0,4.3-2.3,3.7-6
			c0,0-0.5-1.3-0.2-2.9c0,0,1-1.5-0.2-3.8c0,0-6.2-9.2-6.5-14.5c0,0-0.2-14.8-1.3-21.7c0,0-1.6-15.7-4.1-22.4c0,0-3.8-10.2-3.8-16.8
			c0,0-0.4-7.5,0.1-10.3c0,0,0.2-1.9,1.2,1.6c0,0-0.1-2.9-1.1-6c0,0-0.5-4.7,0.6-2.8c0,0,1.6-0.4-1.8-5l-0.7-3.8
			c0,0,4.3,4.6,4.7,9.1c0,0,0.6-6.1-4.7-10.7c0,0,3,0,5,2.8c1.9,2.8,0.5-0.1,0.5-0.1s-4.7-5.5-7.7-5.7c0,0-1.3-4-4-5.5
			c0,0-0.4-7.2-2.4-10c0,0-2.3-1.5-2.3-3.5c0,0,1.8-6.7-1.5-9.7c0,0-3.4-6.7-4.1-8.6c0,0-6.7-19.8-17.6-20.6c0,0-4.9-3.3-7.9-0.9
			c0,0-4.9-3.2-8.5,2.6c0,0-9.9,7.3-10.9,16.5c0,0-1.6,10.9-3.9,13.5c0,0-2.2,1.8-3.8,1.3c0,0,0.2,1.9,1.5,2.4l2.7,0.3
			c0,0-1.5,6.1-3,9.1c0,0,0.2,3.5-2,4.1l-2.4,1.3l2.2,0.2c0,0-6,1.6-5.7,5.3l2.1-0.6c0,0-2.8,6.3-2.5,12.9c0,0,2.9,13,2.5,16.3
			c0,0,0.4,18.7-1.1,24c0,0-3.4-7.8-3.4-10.1c0,0-11.3-58.1-21.4-62.3c0,0-12.8-10-18.9-10.5c0,0-6.8-1.1-9-6.9l-0.6-4.3
			c0,0,4.3-1.9,4-9.7c0,0,1.6-19-2.8-22.6c0,0-4.3-8.3-10.7-9c0,0-11-3.2-13.6,0.9c0,0-7.2,3.6-6.3,9.4c0,0-2.8,8.9,0.2,13.6
			c0,0-0.9,7.7,1.5,12.3c0,0,2.4,10.1,3.9,11.7c0,0-4.6,3-6.1,3.4c0,0-4.6,0.1-7.1,0.9c0,0-18.5,6.9-19,14.6c0,0-5.6,26.3-5.7,36.5
			c0,0-5.3,32.1-2.1,48.2c0,0,0.6,9.2,3.2,15c0,0,2.2,6.9,2.1,10.8c0,0-0.5,14.8,3.6,12.8c0,0-0.7,2.7-1.8,4.6c0,0-0.8,1.5,2.1,1.3
			c0,0-5.2,28.6-2.9,37.7c0,0,1.5,16.2,5.5,19.6c0,0,1,4.3,3,8.3c0,0,2.7,10.5,5.8,14.4c0,0,4,14.5,5.2,16.4c0,0-0.1,9.1,4.3,9.6
			c0,0,1,2.4,0.4,5.6c0,0-0.1,1.6,1.3,1.8c0,0-1.9,0.6-1.9,3.8c0,0-1.9,2.9-1.7,9c0,0,1.6,12.2,9.6,12.8c0,0,6.7,1,7.8-5.2
			c0,0,0.7,10.3,3.9,14.6c0,0,0.9,4.4,0.9,6c0,0-0.7,2.8,7.3,2.9c0,0,13.4,0.2,13.6-4.3c0,0,0.7-2.8,0-6.1c0,0,2.3-1.5,1.6-3.2
			c0,0-0.1-2.4,0.6-2.7c0,0,2.1-5.5,1.8-8.1c0,0-0.5-8.4-3.4-10.8c0,0-1.6-4.7-1-6.9c0,0,8-26.5,8.5-32.5c0,0,5.5-21.9,6-28.2
			c0,0,4-32.6,3.3-41.5c0,0-0.5-13-1.1-16.7c0,0,2.7-0.4,0.9-6.3c0,0-1.5-21.4,0.6-26c0.7-1.5,0.4-4.1,0.5-5.7
			c0.2-2.1,0.3-4.1,0.5-6.2c0.2-3.3,0.7-7,0.1-10.2c0,0,4.3,15.9,7.1,19.8c0,0,7.1,14,3.9,19.1c0,0-2,5-1.2,6.9c0,0-3,3.5-1.2,5.8
			c0,0-2.6,5.1,0.6,4.5c0,0,2.2-0.7,4-3.8c0,0,2.9,0.7,4.5,2.4c0,0,5.5,2.7,5.2,0.9c0,0,2.2-1.5,1.7-3c0,0,4.5,3.3,6.6,0.7
			c0,0,3.3-1,3.3-5.5c0,0-1.7-17.5-3-21.8c0,0,9.4-22.5,9.4-27.4l-0.1-11.7c0,0,3.2,10.3,2.1,18.6c0,0-2.7,11.3-2.7,14.5
			c0,0-1.1,0.7,1.5,0.6c0,0-0.7,4.1-0.7,4.9c0,0-2.2,1.7-1.8,11.4c0,0-1.8,14.5-1,17c0,0-8.4,15.8-9.2,27.4c0,0-6.1,43.1-6.5,48.7
			c0,0-2.2,23.7-2.2,25.9c0,0-4.6,24.8,1.6,23.2c0,0,22-5.8,22.3-12.5c0,0,3.3-3.5,3.9-0.9c0,0-0.4,8.6,0.7,11.9l-0.1,1.7
			c0,0-1.6,5.2-1.7,6.8c0,0-2.8,10.8,1.7,11.8c0,0,9.1,3.2,11.6-2.5c0,0,2.3-7.5,1.1-11.3l-0.7-1.9c0,0,2.4-2.2,2.6-3.3
			c0,0,2.6,6.6,1.6,8.5c0,0-2.1,7.3-1.8,11.4c0,0-3.5,7.9,1.6,7.9c0,0,14.5,1,14.8-5c0,0,14.2,1.1,18.2,0.5c0,0,11.9,1.6,11.7-2.4
			c0,0,1-2.7,2.3-2.8c0,0,8,0,8-4.6c0,0-2.7-38.8-2.7-42.5c0,0-0.8-17.9-1.2-23.1c0,0-4-44.2-6.5-52.7c0,0-0.7-4.7-1.4-9.3l0,0
			c-0.6-4-1.2-7.9-1.3-8.4c0,0-3-18.7-5.4-23.2l-1.3-2.8c0,0-0.7-7.2-2.1-10.2c0,0-0.9-0.5-0.9-3c0,0-1.2-5.7-2.6-8.4
			c0,0-6.9-14-4.9-23c0,0-0.2-8.8,1.7-12.4c0,0,1.7,1.5,1.6,8.3c0,0,0.8,16.3,2.8,20.4c0,0,5.2,17.8,7.7,21.9c0,0,2.4,7.7,2.3,11.9
			c0,0,2.6,9.4,2.6,12c0,0,0.4,6,2.8,9.7c0,0,2.6,2.1,2.6,3C401.8,312.6,397.6,315.1,397.6,316.5z"/>
		<path class="st1" d="M246.5,324.8c0,0,5.5,19.2,5.4,27.6c0,0,0.8,15.7,2.7,22.3c0,0,2.1,17.8-1.8,25.1c0,0-2.2-5.8-7.7-4.9
			c0,0-2.8,0.5-2.8-2.8c0,0-1.5-8.2-2.6-11.9c0,0-4.3-10.8-2.8-15.2c0,0,1.1-21.8,4.7-28.7C241.6,336.3,245.2,325.7,246.5,324.8z"/>
	</g>
</g>
</svg>
